<svg xmlns="http://www.w3.org/2000/svg" width="1502" height="482" fill="none">
  <path fill="#212121" d="M1 1.586h1502v480H1z"/>
  <path fill="#FF5B23" d="M1270.81-50.161 899.018 479.633 495.41 572.557 383 479.633l827.6-599.047 60.21 69.253Z"/>
  <path fill="#160C00" d="M738.366 202.489c32.291-86.654 143.302-144.337 229.955-112.046 49.069 18.285 84.469 57.137 100.099 103.132 9.49-10.189 22.7-12.942 36.32-16.444 10.98-2.823 39.72-14.119 22.14 14.195-24.12 38.86-44.08 83.398-58.28 108.569-11.51 20.403-100.641 142.188-217.218 104.346-87.956-28.553-145.308-115.1-113.016-201.754v.002Z"/>
  <path fill="#160C00" d="M1103.28 196.98s-45.76 21.741-57.34 16.448c-11.58-5.293-23.94-64.059-22.49-72.327 1.46-8.268 61.08-15.455 61.08-15.455l18.75 71.334ZM896.734 49.635c1.979 1.587 35.541 48.105 35.541 48.105s-79.676 44.12-89.739 36.953c-10.062-7.168-17.43-38.364-16.133-40.892 1.298-2.526 70.332-44.166 70.332-44.166h-.001ZM800.592 299.411s42.189-7.34 39.071-14.589c-3.119-7.25-23.5-82.47-26.828-83.221-3.328-.751-33.007 21.08-35.875 24.854-2.871 3.774 23.631 72.956 23.631 72.956h.001Z"/>
  <path fill="#000" d="M993.883 362.899c-7.086-3.486-42.139-38.37-40.646-39.627 1.493-1.257 85.273-33.477 90.053-30.318 4.78 3.16 27.71 33.907 22.4 37.468-5.31 3.56-71.807 32.477-71.807 32.477Z"/>
  <path fill="#160C00" d="M898.158 63.645c.338 1.287 10.922 21.035 9.765 25.018-1.158 3.983-35.613 22.138-40.735 20.067-5.123-2.072-14.673-18.03-11.496-21.74 3.178-3.71 17.302-17.858 27.029-19.942 9.727-2.084 15.437-3.4 15.437-3.4v-.003Z"/>
  <path fill="#252525" d="M1158.34 125.388c11.98 27.506 10.64 42.381-1.8 49.492-12.44 7.111-42.23 26.162-53.26 22.099-11.03-4.063-25.76-65.493-24.13-72.475 1.62-6.981 14-14.601 27.16-21.685 13.17-7.086 30.68-26.498 52.03 22.569Z"/>
  <path fill="#160C00" d="M1092.38 175.682s-6.87 1.357-11.12 3.566c-4.25 2.209-13.64 2.134-20.32-10.142-6.68-12.278-7.49-21.267-5.86-23.349 1.63-2.084 15.42-16.765 20.87-14.978 5.46 1.788 12.03 23.221 15.09 30.774 3.06 7.553 1.34 14.131 1.34 14.131v-.002Z"/>
  <path fill="#FF5B23" d="M1105.27 191.846c1.13.366 5.44.883 17.94-4.876 8.74-4.022 18.22-9.606 25.15-13.683 2.04-1.202 3.88-2.287 5.45-3.183 6.71-3.836 12.71-12.134-.51-42.517-7.08-16.268-14.13-25.807-20.97-28.353-5.64-2.103-10.87.744-18.2 5.327-1.79 1.118-3.48 2.176-5.21 3.106-15.18 8.174-23.39 14.222-24.38 17.98-.24 2.63 1.97 16.546 7.16 34.46 6.72 23.248 12.02 30.74 13.57 31.739Z"/>
  <path fill="#160C00" d="M1114.13 104.557c.36-.227.72-.447 1.07-.663 4.84 4.945 10.56 11.285 15.47 17.943 7.63 10.343 12.45 36.262 12.96 54.222-6.19 3.607-13.53 7.743-20.41 10.91-12.51 5.758-16.82 5.239-17.95 4.876-1.55-1-6.84-8.492-13.57-31.74-5.19-17.913-7.4-31.83-7.16-34.46 1-3.758 9.2-9.805 24.39-17.98 1.72-.93 3.41-1.986 5.2-3.106v-.002Z"/>
  <path fill="url(#a)" d="M894.772 63.982c2.437-6.543 3.529-15.597-1.217-26.501-4.747-10.905-8.277-39.953-24.567-44.392-16.289-4.44-55.821 16.717-62.495 24.998-6.674 8.278-10.523 15.98-.447 43.225 10.075 27.245 13.192 38.142 29.431 35.71 16.24-2.43 56.858-26.497 59.295-33.04Z"/>
  <path fill="#FF5B23" d="M827.699 91.272c1.738.648 4.015.748 6.962.307 14.922-2.232 51.408-24.468 55.038-29.75 2.549-7.025 2.148-14.478-1.193-22.153-1.306-3.002-2.424-6.866-3.72-11.343-3.227-11.141-7.647-26.403-16.361-29.65-.294-.11-.582-.202-.885-.286-13.508-3.681-51.024 16.02-56.764 23.142-4.993 6.193-9.305 11.54.429 37.863l1.451 3.935c5.941 16.139 9.526 25.878 15.043 27.935Z"/>
  <path fill="#160C00" d="M853.221 21.813c9.639-3.989 18.965-6.687 26.642-8.487 2.002 4.935 3.569 10.333 4.922 15.008 1.296 4.475 2.416 8.34 3.72 11.342 3.341 7.676 3.742 15.13 1.193 22.153-3.628 5.28-40.116 27.517-55.038 29.751-2.947.44-5.224.341-6.962-.307-5.517-2.055-9.102-11.797-15.043-27.935l-.421-1.142c11.568-14.124 25.093-33.805 40.987-40.383Z"/>
  <path fill="#252525" d="M800.593 299.409s-34.797 17.864-42.87 20.484c-8.073 2.62-24.327 6.839-37.409-38.165-13.082-45.006-.105-50.936 15.855-55.02 15.959-4.085 46.12-5.57 48.728-3.375 2.607 2.196 19.731 68.527 15.695 76.076h.001Z"/>
  <path fill="#FF5B23" d="M746.172 315.191c3.529 1.314 6.802.458 9.852-.533 5.822-1.89 28.794-13.38 39.729-18.955.411-10.886-10.502-56.984-14.673-67.716-6.552-.66-29.325.41-43.547 4.049-7.602 1.945-12.201 3.843-14.736 8.281-3.864 6.77-2.922 20.183 2.801 39.872 7.363 25.333 15.251 33.016 20.573 34.998l.001.004Z"/>
  <path fill="#160C00" d="M781.08 227.988c4.171 10.732 15.086 56.828 14.672 67.716-6.007 3.064-15.645 7.909-24.08 11.971-19.802-10.171-39.482-19.364-41.5-32.561-1.218-7.969 2.307-34.211 10.21-43.748 14.239-3.099 34.568-3.995 40.698-3.378Z"/>
  <path fill="#160C00" d="M823.952 269.37s-24.307 17.79-33.226 17.302c-8.92-.489-25.731-23.014-22.678-41.538 3.053-18.526 34.027-20.734 41.55-20.628 7.812.111 14.354 44.864 14.354 44.864Z"/>
  <path fill="url(#b)" d="M1095.62 350.624c5.86 7.768-1.24 26.947-28.65 44.465-27.4 17.517-45.97 22.672-58.88 4.808-12.923-17.864-22.851-35.875-16.976-44.638 5.876-8.762 54.456-34.053 62.356-33.389 7.91.664 24.67 5.604 42.14 28.754h.01Z"/>
  <path fill="#000" d="m1045.29 329.824-14.08-17.589-41.141 20.012s24.531 25.903 27.751 24.593c3.21-1.31 27.47-27.016 27.47-27.016Z"/>
  <path fill="#FF5B23" d="M1021.96 404.458c8.8 3.279 21.77-1.04 42.05-14.005 18.48-11.809 26.48-23.92 27.81-31.315.41-2.26.19-4.155-.6-5.195-11.69-15.488-22.69-21.924-29.86-24.597-3.63-1.351-6.47-1.825-8.25-1.983-2.46.125-13.52 4.287-29.76 12.933-15.73 8.378-25.996 15.544-27.663 18.031-1.228 1.83-3.637 10.004 16.853 38.348 2.85 3.94 5.93 6.486 9.42 7.783Z"/>
  <path fill="#160C00" d="M1023.36 340.294c16.23-8.646 27.3-12.807 29.75-12.933 1.78.158 4.62.63 8.25 1.983 5.16 1.922 12.31 5.815 20.26 13.6-8.27 11.492-21.84 28.28-35.21 35.748-10.84 6.06-26.2 9.127-39.92 9.186-13.9-21.294-11.894-27.929-10.804-29.553 1.667-2.487 11.934-9.651 27.674-18.031Z"/>
  <path fill="#000" d="M1044.57 315.698c56.08-56.077 56.08-146.996 0-203.074-56.078-56.077-146.997-56.077-203.075 0-56.077 56.078-56.077 146.997 0 203.074 56.078 56.077 146.997 56.077 203.075 0Z"/>
  <path fill="#D2FF00" d="M1046.87 309.518c56.08-56.077 56.08-146.996 0-203.073-56.075-56.078-146.994-56.078-203.071 0-56.078 56.077-56.078 146.996 0 203.073 56.077 56.078 146.996 56.078 203.071 0Z"/>
  <path fill="#8FAC06" d="M1077.78 220.708c7.03-73.146-46.57-138.14-119.719-145.168-73.146-7.028-138.14 46.572-145.168 119.718-7.027 73.146 46.572 138.14 119.718 145.168 73.149 7.028 138.139-46.572 145.169-119.718Z"/>
  <path fill="#F9F8F4" d="m865.158 246.314-15.26 1.964a2.693 2.693 0 0 0-2.327 3.015l1.051 8.161a2.693 2.693 0 0 0 3.015 2.327l15.26-1.964a2.694 2.694 0 0 0 2.327-3.015l-1.051-8.162a2.693 2.693 0 0 0-3.015-2.326Z"/>
  <path fill="#000" d="M859.307 255.122c.08.004.162.004.243-.005a1.46 1.46 0 0 0 1.284-1.614 1.46 1.46 0 0 0-1.614-1.283 1.316 1.316 0 0 0-.239.05 1.458 1.458 0 1 0-1.866 1.649c-.843-.036-1.523-.488-1.594-1.117l.302 2.629c-.071-.626.488-1.221 1.301-1.448a1.457 1.457 0 0 0 .9 2.708 1.457 1.457 0 0 0 1.285-1.569h-.002Z"/>
  <path fill="#F9F8F4" d="m858.658 228.72-14.715 4.495a2.693 2.693 0 0 0-1.788 3.362l2.404 7.87a2.694 2.694 0 0 0 3.362 1.789l14.715-4.496a2.693 2.693 0 0 0 1.788-3.362l-2.404-7.87a2.693 2.693 0 0 0-3.362-1.788Z"/>
  <path fill="#DCB8FF" d="M852.454 234.844a1.597 1.597 0 0 1 2.845 1.429l-.005.014-.155.311.307.154.015.009a1.596 1.596 0 0 1-1.429 2.846l-3.174-1.591 1.597-3.173-.001.001Z"/>
  <path fill="#596C00" d="M862.02 230.505a2.7 2.7 0 0 0-3.361-1.787l-14.716 4.496a2.699 2.699 0 0 0-1.892 2.451l2.232 3.526a2.7 2.7 0 0 0 3.715.834l12.998-8.233a2.674 2.674 0 0 0 1.037-1.237l-.014-.048.001-.002ZM864.422 238.378l-.291-.955-7.729.525a2.7 2.7 0 0 0-2.503 2.869l.24 3.518 8.497-2.595a2.7 2.7 0 0 0 1.788-3.362h-.002Z" style="mix-blend-mode:multiply"/>
  <path fill="#F9F8F4" d="m874.709 235.622-15.35 1.045a2.692 2.692 0 0 0-2.504 2.869l.559 8.21a2.692 2.692 0 0 0 2.869 2.504l15.35-1.044a2.693 2.693 0 0 0 2.504-2.87l-.558-8.21a2.695 2.695 0 0 0-2.87-2.504Z"/>
  <path fill="#DCB8FF" d="m871.477 242.669-3.417-2.478-3.353 2.564 3.417 2.477 3.353-2.563Z"/>
  <path fill="#F9F8F4" d="m855.257 218.093-12.999 8.232a2.693 2.693 0 0 0-.834 3.716l4.403 6.952a2.692 2.692 0 0 0 3.715.834l12.999-8.232a2.693 2.693 0 0 0 .834-3.716l-4.403-6.952a2.692 2.692 0 0 0-3.715-.834Z"/>
  <path fill="#000" d="M851.554 228.781a1.382 1.382 0 0 0 2.694.576l.644-3.007-3.003-.638a1.383 1.383 0 0 0-.577 2.695l.012.003.182.04c-.696.232-1.383.104-1.692-.371l1.427 2.201c-.309-.476-.145-1.154.35-1.694l-.037.181v.014Z"/>
  <path fill="#F9F8F4" d="m882.575 141.588-7.797 2.631a2.693 2.693 0 0 0-1.69 3.412l4.92 14.579a2.692 2.692 0 0 0 3.412 1.69l7.797-2.631a2.693 2.693 0 0 0 1.69-3.413l-4.919-14.578a2.693 2.693 0 0 0-3.413-1.69Z"/>
  <path fill="#000" d="M881.123 153.845a1.457 1.457 0 1 0 2.732-.884 1.457 1.457 0 1 0-1.985-1.503c-.129-.834.181-1.589.783-1.782l-2.519.811c.602-.194 1.294.238 1.676.992a1.457 1.457 0 1 0-.687 2.366Z"/>
  <path fill="#596C00" d="m884.873 156.439 1.566 5.763 2.778-.937a2.7 2.7 0 0 0 1.69-3.411L889.1 152.5l-2.336.635a2.703 2.703 0 0 0-1.893 3.306l.002-.002Z" style="mix-blend-mode:multiply"/>
  <path fill="#F9F8F4" d="m901.952 115.034-5.325 6.274a2.693 2.693 0 0 0 .31 3.796l11.731 9.956a2.692 2.692 0 0 0 3.795-.311l5.325-6.274a2.693 2.693 0 0 0-.31-3.795l-11.731-9.956a2.692 2.692 0 0 0-3.795.31Z"/>
  <path fill="#000" d="m897.423 121.981 5.325-6.274a1.645 1.645 0 0 1 2.319-.19l11.731 9.956c.691.587.776 1.625.189 2.316l-5.325 6.276a1.645 1.645 0 0 1-2.317.19l-11.731-9.956a1.645 1.645 0 0 1-.19-2.319l-.001.001Z"/>
  <path fill="#F9F8F4" d="m895.926 148.38-7.941 2.158a2.693 2.693 0 0 0-1.892 3.305l4.035 14.847a2.693 2.693 0 0 0 3.305 1.892l7.941-2.158a2.693 2.693 0 0 0 1.892-3.305l-4.035-14.847a2.693 2.693 0 0 0-3.305-1.892Z"/>
  <path fill="#DCB8FF" d="m895.719 163.335 1.761-3.836-3.172-2.785-1.759 3.836 3.17 2.785Z"/>
  <path fill="#596C00" d="m897.8 159.534 4.528 8.41a2.702 2.702 0 0 0 .937-2.824l-2.748-10.107-1.624.875a2.699 2.699 0 0 0-1.093 3.646Z" style="mix-blend-mode:multiply"/>
  <path fill="#F9F8F4" d="m906.661 148.923-7.246 3.902a2.693 2.693 0 0 0-1.094 3.647l7.295 13.547a2.692 2.692 0 0 0 3.647 1.095l7.246-3.902a2.693 2.693 0 0 0 1.094-3.647l-7.295-13.547a2.692 2.692 0 0 0-3.647-1.095Z"/>
  <path fill="#DCB8FF" d="M910.38 158.686c.364.128.671.382.861.717a1.598 1.598 0 0 1-1.706 2.352l-.016-.003-.334-.091-.092.33-.006.014a1.597 1.597 0 0 1-3.069-.844l.936-3.423 3.424.945.002.003Z"/>
  <path fill="#160C00" d="m1024.08 184.343-2.97-4.982a2.699 2.699 0 0 0-3.19-2.081l-14.93-.058c-1.45.305-2.51 4.97-2.2 6.42l1.69 8.053a2.71 2.71 0 0 0 3.19 2.081l15.06-3.172c1.45-.306 3.65-4.812 3.35-6.261Z"/>
  <path fill="#F9F8F4" d="m1019.13 173.336-15.05 3.172a2.687 2.687 0 0 0-2.08 3.19l1.69 8.053a2.696 2.696 0 0 0 3.19 2.079l15.06-3.172a2.702 2.702 0 0 0 2.08-3.19l-1.7-8.052a2.693 2.693 0 0 0-3.19-2.08Z"/>
  <path fill="#000" d="m1004.29 177.524 15.06-3.173c.89-.187 1.76.382 1.95 1.27l1.69 8.054a1.64 1.64 0 0 1-1.27 1.947l-15.05 3.172a1.646 1.646 0 0 1-1.95-1.27l-1.7-8.053a1.64 1.64 0 0 1 1.27-1.947Z"/>
  <path fill="#F9F8F4" d="m992.611 277.106-3.385 15.009a2.694 2.694 0 0 0 2.035 3.22l8.027 1.81a2.697 2.697 0 0 0 3.222-2.034l3.38-15.009a2.69 2.69 0 0 0-2.03-3.22l-8.03-1.81a2.693 2.693 0 0 0-3.219 2.034Z"/>
  <path fill="#000" d="m990.242 292.343 3.385-15.007a1.645 1.645 0 0 1 1.967-1.243l8.026 1.81c.89.2 1.44 1.08 1.24 1.965l-3.38 15.009a1.645 1.645 0 0 1-1.967 1.243l-8.027-1.81a1.645 1.645 0 0 1-1.244-1.967Z"/>
  <path fill="#F9F8F4" d="m994.242 275.623-7.91 2.27a2.693 2.693 0 0 0-1.846 3.331l4.244 14.789a2.693 2.693 0 0 0 3.331 1.846l7.91-2.27a2.695 2.695 0 0 0 1.849-3.331l-4.247-14.789a2.693 2.693 0 0 0-3.331-1.846Z"/>
  <path fill="#000" d="m994.529 276.634-7.91 2.27a1.646 1.646 0 0 0-1.128 2.035l4.244 14.789a1.645 1.645 0 0 0 2.036 1.128l7.91-2.27a1.65 1.65 0 0 0 1.129-2.035l-4.245-14.789a1.645 1.645 0 0 0-2.036-1.128Z"/>
  <path fill="#F9F8F4" d="m985.628 277.743-7.21 3.965a2.692 2.692 0 0 0-1.062 3.657l7.414 13.482a2.693 2.693 0 0 0 3.657 1.062l7.211-3.966a2.693 2.693 0 0 0 1.062-3.657l-7.415-13.482a2.692 2.692 0 0 0-3.657-1.061Z"/>
  <path fill="#000" d="m978.926 282.626 7.212-3.967a1.645 1.645 0 0 1 2.232.648l7.416 13.483a1.646 1.646 0 0 1-.648 2.233l-7.212 3.966a1.645 1.645 0 0 1-2.235-.648l-7.414-13.48a1.645 1.645 0 0 1 .649-2.235Z"/>
  <path fill="#F9F8F4" d="m976.744 282.871-6.581 4.94a2.69 2.69 0 0 0-.538 3.769l9.235 12.307a2.693 2.693 0 0 0 3.77.537l6.582-4.939a2.693 2.693 0 0 0 .537-3.77l-9.235-12.306a2.693 2.693 0 0 0-3.77-.538Z"/>
  <path fill="#000" d="m970.791 288.642 6.581-4.939a1.645 1.645 0 0 1 2.304.328l9.235 12.306a1.645 1.645 0 0 1-.328 2.302l-6.583 4.94a1.647 1.647 0 0 1-2.304-.328l-9.234-12.305a1.646 1.646 0 0 1 .329-2.304Z"/>
  <path fill="#160C00" d="M985.287 342.606c-5.309-5.472-13.849-38.616-19.176-38.044-5.326.572-6.214 20.665-1.643 36.509 1.003 3.472 2.169 6.328 3.374 8.717a143.455 143.455 0 0 0 18.959-4.347c-.296-1.09-.77-2.066-1.516-2.835h.002Z"/>
  <g fill="#212121" style="mix-blend-mode:multiply">
    <path d="M1088.96 208.97c-.11 16.344-3.03 32.948-9.07 49.152-15.18 40.741-46.91 70.467-84.71 84.483l93.78-133.635ZM805.228 176.619c1.417-6.294 3.234-12.567 5.549-18.782 23.104-61.998 84.49-98.539 147.351-92.88l-152.901 111.66.001.002Z"/>
  </g>
  <path fill="#160C00" d="m844.617 113.208 1.304-8.887c19.795-18.957 44.641-31.828 71.355-37.177-.518 8.581-2.235 36.119-2.975 37.507-.877 1.645-8.431 14.825-8.431 14.825s1.751-28.802-.955-31.931c-2.707-3.13-15.809-3.197-28.484 2.194-12.678 5.39-31.814 23.469-31.814 23.469ZM835.159 115.845l31.272 60.956c-1.312-.415-8.284 10.199-24.698-10.435-9.524-11.975-15.7-24.453-19.209-32.824a142.46 142.46 0 0 1 12.636-17.695l-.001-.002ZM851.391 264.401s.007 16.219-5.872 24.118c-3.724 5.004-3.82 12.281-6.481 16.044a143.767 143.767 0 0 1-11.747-14.811c1.665-4.457 3.795-8.032 3.795-8.032l20.305-17.319ZM805.881 207.478l41.455 16.916s-2.501 8.969-20.904 2.795c-10.817-3.628-18.821-4.808-23.998-4.86a142.825 142.825 0 0 1-.726-14.07c2.422-.466 4.173-.781 4.173-.781ZM1088.25 222.192c-3.09 1.808-6.45 3.605-8.92 4.492-6.03 2.159-40.27 14.36-49.69 12.715-9.42-1.644-15.21-10.626-12.34-10.707 2.87-.082 56.34-26.15 59.8-32.373 3.46-6.223-7.86-46.314-19.55-47.779-11.69-1.464-22.01 17.458-27.01 23.03-5 5.571-13.69 3.805-15.51 3.674l6.44-7.814 10.2-23.656s17.01-18.723 28.88-19.614c.45-.034.91-.032 1.38-.012 20.09 27.996 29.85 62.829 26.32 98.042v.002Z"/>
  <path fill="#D3D3D3" d="M976.066 314.512s1.177-2.577 1.77-4.141c.593-1.562 1.97-6.083.493-6.504-1.477-.42-3.195 5.009-3.195 5.009s.472-8.82-.944-9.881c-1.417-1.062-5.478-.513-8.712 2.969-3.234 3.483 2.357 15.855 2.357 15.855l8.233-3.307h-.002ZM1015.01 292.397s-1.96 2.05-3.19 3.182c-1.23 1.131-4.91 4.09-5.85 2.876-.94-1.216 3.46-4.828 3.46-4.828s-8.01 3.715-9.522 2.796c-1.511-.922-2.512-4.896-.481-9.193 2.033-4.298 15.593-3.703 15.593-3.703l-.01 8.872v-.002ZM858.506 152.212s4.48 6.033 6.985 8.506c2.504 2.473.45 4.48.45 4.48s5.893 7.825.49 11.602c-5.405 3.777-17.533-10.736-18.355-13.671-.822-2.938 2.16-9.493 4.972-10.647 2.811-1.156 5.458-.27 5.458-.27ZM910.644 94.352s-1.734 6.801-3.117 10.991c-1.383 4.187-3.046 11.97-1.658 14.134 1.388 2.164 5.254-8.201 5.254-8.201s3.917 3.508 7.798 2.517c3.88-.99 6.5-16.271 6.5-16.271l-6.635-3.648-8.142.478Z"/>
  <path fill="#fff" d="m857.589 148.873.918 3.339s-4.037 1.31-6.605 4.757c-2.569 3.447-3.825 6.161-3.825 6.161l-1.637-3.486s2.737-6.688 4.517-8.348c1.781-1.661 6.634-2.423 6.634-2.423h-.002ZM925.838 93.555l-.417 3.964s-3.103-1.523-7.063-2.388c-3.96-.864-7.869-.445-7.869-.445l.739-4.496s6.404-.224 8.404.154c2.001.378 6.206 3.211 6.206 3.211Z"/>
  <path fill="#D3D3D3" d="M1034.1 227.456s-1.87 2.153-8.12 3.41c-4.33.868-11.51-.856-11.54-2.09-.03-1.233.74-2.005.74-2.005s-2.33-.3-2.94-1.506c-.61-1.207.93-2.506.93-2.506s-3.34-1.979-2.41-3.591c.92-1.612 13.35-3.669 16.22-3.253 2.86.415 6.17 6.624 6.67 8.358.49 1.734.44 3.185.44 3.185l.01-.002ZM835.212 208.206s2.24-.623 7.065 1.353c3.331 1.363 7.441 5.783 6.903 6.637-.538.852-1.415 1.026-1.415 1.026s1.454 1.258 1.323 2.355c-.132 1.097-1.768 1.282-1.768 1.282s1.377 2.856.017 3.534c-1.359.678-7.533-4.118-12.501-5.119-2.317-.467-1.207-7.297-.76-8.701.447-1.404 1.136-2.367 1.136-2.367ZM845.061 277.702s2.133-.923 4.641-5.494c1.733-3.156 2.148-9.177 1.193-9.502a2.37 2.37 0 0 0-1.745.093s.338-1.893-.452-2.665c-.79-.77-2.182.116-2.182.116s-.724-3.087-2.208-2.759c-1.482.329-3.268 7.94-6.502 11.843-1.507 1.82 3.651 6.433 4.881 7.242 1.231.812 2.372 1.126 2.372 1.126h.002Z"/>
  <path fill="#fff" d="m1037.95 227.832-4.8 1.718s-.18-5.86-1.73-8.478c-1.56-2.618-4.44-5.162-4.44-5.162l5.78-1.574s5.2 3.628 5.91 6.095c.71 2.468-.72 7.401-.72 7.401Z"/>
  <path fill="#DCB8FF" d="M846.604 277.247s-3.007-1.12-5.405-3.637c-2.398-2.515-3.213-5.163-3.213-5.163s-14.292 14.361-24.772 16c-10.482 1.638-22.994-4.413-25.971-9.85-2.976-5.437-12.32-35.149-7.962-42.855 4.359-7.705 13.751-22.143 22.867-20.728 9.119 1.414 34.194 8.866 34.194 8.866s1.287-3.577 1.586-6.372c.298-2.796-.205-5.079-.205-5.079s-34.48-11.971-41.91-12.711c-7.43-.74-28.134 20.344-34.576 31.464-6.443 11.121-11.257 42.182 4.504 55.763 15.762 13.581 34.389 22.01 45.345 20.55 10.955-1.461 21.44-9.978 25.418-13.785 6.305-6.034 10.098-12.463 10.098-12.463h.002Z"/>
  <path fill="#160C00" d="M785.911 213.832c7.18-5.844 9.408-11.098 25.36-6.369 9.734 2.884 19.832 6.259 26.231 8.451-.484 2.092-1.157 3.965-1.157 3.965s-25.076-7.451-34.194-8.866c-9.119-1.415-18.51 13.023-22.868 20.729-4.359 7.705 4.986 37.417 7.963 42.854 2.977 5.437 15.489 11.488 25.97 9.85 10.48-1.638 24.773-16 24.773-16s.816 2.648 3.212 5.163c1.058 1.11 2.233 1.948 3.219 2.539-3.799 4.741-16.198 18.877-28.923 18.79-13.886-.096-26.593-7.67-47.189-9.855a113.362 113.362 0 0 1-2.563-2.139c-1.896-1.635-3.488-3.525-4.821-5.6 3.387-9.947 14.102-26.601 14.102-26.601l-4.119-9.343s7.824-21.725 15.004-27.568Z" style="mix-blend-mode:multiply"/>
  <path fill="#D3D3D3" d="M1031.85 156.062s-2.54 5.66-4.09 8.816c-1.54 3.156-6.1 7.024-7.76 8.363-1.66 1.338-3.42 2.944-4.97 2.002-1.54-.943 3.91-6.864 4.03-7.858.13-.994-5.86-2.491-5.9-4.523-.04-2.032 4.56-7.295 6.61-9.037 2.06-1.741 4.7-3.571 4.7-3.571l7.38 5.808Z"/>
  <path fill="#fff" d="m1034.15 155.29-2.22 2.025s-6.27-5.334-7.38-5.989c-1.1-.655-2.43-1.518-2.43-1.518l2.87-3.642s5.17 3.578 6.21 4.885c1.05 1.306 2.95 4.239 2.95 4.239Z"/>
  <path fill="#DCB8FF" d="M1052.34 357.985s13.82-10.02 13.35-27.567c-.46-17.546-10.44-43.941-13.88-46.529-3.44-2.588-36.93-.711-36.93-.711s-.79 1.255-1.5 4.011c-.7 2.757.48 6.326.48 6.326s26.05 1.186 28.47 1.923c2.41.736 5.68 26.434 4.83 27.419-.86.985-17.38 1.762-24.94 7.592-7.55 5.829-9.47 13.598-9.47 13.598s-18.684-2.394-23.055-5.982c-4.372-3.587-11.787-23.968-11.787-23.968s-2.453-1.077-5.413-.793c-2.961.284-6.382 2.678-6.382 2.678s6.46 26.224 12.567 34.129c6.108 7.904 41.08 24.364 54.79 20.418 13.7-3.946 18.87-12.544 18.87-12.544Z"/>
  <path fill="#160C00" d="M970.143 313.884c1.95 7.019 6.711 23.337 10.144 28.419 4.414 6.539 21.873 15.98 24.083 15.173 1.43-.522 2.37-8.096 3.34-14.186 2.94.491 5.04.761 5.04.761s1.92-7.769 9.47-13.598c7.56-5.831 24.08-6.607 24.94-7.592.85-.985-2.42-26.683-4.83-27.419-2.42-.739-28.47-1.923-28.47-1.923s-.42-1.265-.61-2.87c5.13-.275 15.45-.717 20.26-.122 6.55.809 13.83-2.515 15.64 7.947 1.81 10.462 3.46 22.66 2.15 28.37-1.31 5.71-8.91 16.907-13.43 18.975-2.44 1.113 1.44 12.425 2.29 22.16a41.763 41.763 0 0 1-6.69 2.556c-13.71 3.945-48.682-12.513-54.79-20.419-6.107-7.904-12.567-34.128-12.567-34.128s1.864-1.303 4.03-2.1v-.004Z"/>
  <path fill="#DCB8FF" d="M1119.7 151.283c3.18 7.492 3.13 16.009-9.55 29.882-12.67 13.874-19.1 26.322-30.15 32.32-11.04 5.998-42.05 14.346-42.05 14.346s.93-3.142-.59-6.949c-1.52-3.808-4.6-6.547-4.6-6.547s28.69-8.211 34.05-12.086c5.36-3.875 24.34-20.425 25.12-29.105.79-8.678-10.49-31.603-15.94-38.035-5.44-6.435-15.18-4.958-20.79.456-5.6 5.414-21.05 19.724-21.05 19.724l-9.16-9.124s22.34-28.869 27.11-31.168c4.77-2.3 27.64-1.934 36.05 2.18 8.42 4.115 22.03 11.632 31.55 34.104v.002Z"/>
  <path fill="#160C00" d="M1052.59 131.647c11.9-6.332 18.18-7.736 27.04.497 6.66 6.195 10.34 12.695 11.98 17.161 2.05-3.591 5.05-6.447 8.66-7.72 4.73-1.668 10.69.082 16.14 2.793a84.086 84.086 0 0 1 3.29 6.904c2.38 5.615 2.92 11.813-2.27 20.397l.03-.017c-.52.852-1.1 1.73-1.73 2.63 0 .006 0 .009-.01.014-1.5 2.136-3.33 4.411-5.57 6.857-12.67 13.874-19.1 26.322-30.15 32.32-11.04 5.998-42.05 14.346-42.05 14.346s.54-1.85.11-4.429c8.23-2.3 32.87-9.548 42.66-16.429 11.82-8.318 27.23-29.892 27.23-29.892-3.99.77-7.92.437-11.26-1.594a16.43 16.43 0 0 1-4.76-4.338c-.03-.364-.07-.747-.13-1.138l-.03-.222c-.11-.813-.28-1.681-.5-2.593-.02-.1-.05-.203-.07-.304-.08-.353-.18-.711-.27-1.077-.04-.133-.07-.268-.11-.403-.11-.405-.23-.817-.36-1.234-.02-.08-.05-.159-.07-.239-.14-.448-.28-.904-.44-1.364-.06-.193-.13-.388-.19-.582-.11-.302-.21-.605-.32-.912-.07-.211-.15-.423-.23-.636-.13-.365-.27-.734-.41-1.105-3.58-9.49-9.36-20.161-12.81-24.231-5.44-6.435-15.18-4.958-20.78.456-5.61 5.414-21.06 19.724-21.06 19.724l-3.46-3.445c5.15-6.204 14.05-16.022 21.9-20.199v.004Z"/>
  <path fill="#D3D3D3" d="M1117.85 159.953s-19.29 7.246-25.95-6.072c-6.66-13.319 5.57-22.469 10.13-25.609 3.7-2.547 15.82 31.681 15.82 31.681Z"/>
  <path fill="#DCB8FF" d="M862.069 38.798s22.926 4.14 31.374 4.677c8.445.538 27.628 2.466 32.204 8.575 4.574 6.11.192 41.508.192 41.508s-3.619-2.328-7.539-2.809c-3.919-.48-7.071-.555-7.071-.555s-.522-25.522-.872-25.896c-.35-.375-18.638 4.68-29.263 11.167-10.625 6.486-29.432 19.937-30.65 21.563-1.217 1.626-2.896 22.33-.699 30 2.198 7.671 7.846 21.847 7.846 21.847s-4.22 1.363-6.454 4.079c-2.235 2.716-4.697 6.692-4.697 6.692s-11.389-17.703-13.968-32.121c-2.579-14.421-3.079-57.51 3.261-63.14 6.34-5.63 26.336-25.587 26.336-25.587Z"/>
  <path fill="#160C00" d="m830.856 89.712.006-.149c.482-12.033 1.948-22.585 4.868-25.179.677-.6 1.513-1.37 2.459-2.254l27.655 23.41c-7.741 5.377-14.678 10.521-15.402 11.489-.382.51-.808 2.886-1.145 6.147-3.03.028-6.151-.288-8.829-1.269-1.047-.384-2.068-.913-3.058-1.531-.588 4.007-1.28 11.091-.977 21.194.329 10.963 8.561 24.331 14.105 32.136-2.054 2.641-4.097 5.941-4.097 5.941s-11.389-17.703-13.968-32.121c-1.232-6.893-1.986-20.33-1.748-33.1l-.002-.001c.012-.67.028-1.335.046-2l.009-.327c.023-.8.05-1.594.082-2.384l-.004-.002ZM874.285 68.667c7.469-5.987 37.148-12.622 41.34-10.082 2.748 1.665 2.462 19.655 1.743 32.056-3.473-.384-6.141-.448-6.141-.448s-.522-25.521-.872-25.896c-.349-.374-18.638 4.681-29.263 11.167-3.509 2.142-7.911 5.045-12.276 8.028.6-5.926 2.073-12.104 5.469-14.825Z"/>
  <path fill="#D3D3D3" d="M875.024 52.663c.453 4.179 3.091 27.884-8.213 33.816-11.303 5.932-29.712-9.159-31.137-17.58-1.426-8.42 39.35-16.236 39.35-16.236Z"/>
  <path fill="#000" d="M795.304 251.844c6.443 13.034-5.808 26.862-21.736 29.07-15.927 2.208-25.118-12.25-25.92-17.147-.803-4.896 3.04-19.499 18.802-21.764 15.763-2.263 26.381 4.841 28.852 9.839l.002.002ZM1026.88 336.082c18.54-11.237 42.71 23.646 20.53 37.535-22.18 13.89-42.4-24.286-20.53-37.535ZM843.871 29.406c16.822-6.962 34.125 11.738 31.361 34.036-2.764 22.298-16.786 23.597-32.052 13.341-15.263-10.256-18.599-39.393.691-47.377Z"/>
  <path fill="#160C00" d="M843.182 76.782c-7.022-4.718-11.509-13.433-12.441-22.246 2.63 4.553 6.434 7.283 6.434 7.283-2.586-4.88-.717-13.396-.717-13.396s-1.796 9.196 11.142 19.566c7.897 6.328 17.958 6.529 26.684.676-4.214 17.199-17.136 17.502-31.102 8.117Z"/>
  <path fill="#000" d="M1129.13 126.001c6.37 5.216 9.05 21.972-5.19 30.978-14.25 9.007-26.53 2.228-29.12-5.589s1.15-20.493 10.91-25.665c9.76-5.173 15.71-6.014 23.39.275l.01.001Z"/>
  <path fill="#fff" d="M833.705 213.657a19.62 19.62 0 0 0 .208-6.539c2.357.802 3.814 1.308 3.814 1.308s.501 2.283.202 5.079c-.298 2.795-1.586 6.372-1.586 6.372s-2.219-.658-5.565-1.621c1.354-1.498 2.63-3.136 2.927-4.6v.001ZM837.984 268.445s.817 2.649 3.213 5.164c2.398 2.515 5.405 3.637 5.405 3.637s-1.129 1.906-3.165 4.61c-2.13-1.248-4.748-2.947-6.387-4.617-1.386-1.413-2.399-3.348-3.099-5.064 2.466-2.159 4.031-3.73 4.031-3.73h.002Z"/>
  <path fill="#160C00" d="M1023.6 338.535c-.7 4.75-1.09 14.577 4.66 25.193 5.14 9.511 15.19 9.33 21.77 7.968-.79.675-1.66 1.319-2.62 1.921-20.93 13.11-40.11-20.166-23.81-35.082Z"/>
  <path fill="#F9F8F4" d="m917.599 243.468-15.26 1.964a2.693 2.693 0 0 0-2.327 3.015l1.051 8.162a2.693 2.693 0 0 0 3.014 2.327l15.26-1.965a2.693 2.693 0 0 0 2.327-3.015l-1.051-8.162a2.692 2.692 0 0 0-3.014-2.326Z"/>
  <path fill="#000" d="M911.748 252.277a1.459 1.459 0 1 0-.087-2.903 1.309 1.309 0 0 0-.24.05 1.459 1.459 0 0 0-2.883.423 1.458 1.458 0 0 0 1.017 1.226c-.843-.035-1.523-.488-1.594-1.116l.302 2.628c-.071-.626.488-1.221 1.301-1.448a1.46 1.46 0 0 0 .902 2.709 1.457 1.457 0 0 0 1.285-1.569h-.003Z"/>
  <path fill="#F9F8F4" d="m911.096 225.875-14.715 4.495a2.693 2.693 0 0 0-1.788 3.362l2.404 7.87a2.693 2.693 0 0 0 3.362 1.789l14.715-4.496a2.692 2.692 0 0 0 1.788-3.362l-2.404-7.87a2.693 2.693 0 0 0-3.362-1.788Z"/>
  <path fill="#DCB8FF" d="M904.894 231.999a1.598 1.598 0 0 1 2.845 1.429l-.005.014-.154.31.305.155.014.009a1.597 1.597 0 0 1-1.429 2.845l-3.172-1.59 1.598-3.174-.002.002Z"/>
  <path fill="#F9F8F4" d="m927.148 232.777-15.351 1.045a2.693 2.693 0 0 0-2.503 2.869l.558 8.21a2.693 2.693 0 0 0 2.87 2.504l15.35-1.044a2.693 2.693 0 0 0 2.504-2.87l-.559-8.21a2.692 2.692 0 0 0-2.869-2.504Z"/>
  <path fill="#DCB8FF" d="m923.915 239.824-3.416-2.478-3.353 2.563 3.417 2.478 3.352-2.563Z"/>
  <path fill="#F9F8F4" d="m907.695 215.245-12.998 8.232a2.692 2.692 0 0 0-.834 3.716l4.402 6.952a2.693 2.693 0 0 0 3.716.834l12.999-8.232a2.693 2.693 0 0 0 .834-3.715l-4.403-6.952a2.693 2.693 0 0 0-3.716-.835Z"/>
  <path fill="#000" d="M903.992 225.935a1.383 1.383 0 0 0 2.695.575l.644-3.005-3.004-.637a1.38 1.38 0 0 0-.576 2.694l.012.004.181.039c-.696.232-1.383.105-1.692-.371l1.428 2.201c-.309-.476-.146-1.156.349-1.694l-.037.182v.012Z"/>
  <path fill="#F9F8F4" d="M927.779 189.478h-8.229a2.693 2.693 0 0 0-2.693 2.692v15.386a2.693 2.693 0 0 0 2.693 2.693h8.229a2.693 2.693 0 0 0 2.692-2.693V192.17a2.692 2.692 0 0 0-2.692-2.692Z"/>
  <path fill="#000" d="M919.549 190.524h8.231c.907 0 1.646.737 1.646 1.646v15.388c0 .907-.737 1.643-1.644 1.643h-8.231a1.644 1.644 0 0 1-1.645-1.645V192.17c0-.909.736-1.646 1.645-1.646h-.002Z"/>
  <path fill="#F9F8F4" d="m932.435 185.715-4.724 14.642a2.693 2.693 0 0 0 1.735 3.39l7.832 2.527a2.693 2.693 0 0 0 3.389-1.736l4.725-14.643a2.693 2.693 0 0 0-1.736-3.389l-7.832-2.527a2.692 2.692 0 0 0-3.389 1.736Z"/>
  <path fill="#000" d="m928.707 200.679 4.724-14.643a1.644 1.644 0 0 1 2.069-1.059l7.833 2.527a1.644 1.644 0 0 1 1.06 2.069l-4.725 14.643a1.645 1.645 0 0 1-2.071 1.06l-7.831-2.527a1.643 1.643 0 0 1-1.059-2.07Z"/>
  <path fill="#F9F8F4" d="m960.548 190.286-5.334 14.431a2.695 2.695 0 0 0 1.592 3.46l7.719 2.852a2.692 2.692 0 0 0 3.459-1.592l5.334-14.432a2.692 2.692 0 0 0-1.592-3.459l-7.719-2.853a2.693 2.693 0 0 0-3.459 1.593Z"/>
  <path fill="#000" d="M965.642 199.555a1.46 1.46 0 0 0-.73-2.104 1.459 1.459 0 0 0-1.952 1.072 1.459 1.459 0 0 0-1.797.865 1.459 1.459 0 0 0 2.395 1.551c-.423.73-1.14 1.122-1.729.895l2.469.951c-.589-.227-.857-.997-.68-1.823a1.458 1.458 0 1 0 2.022-1.409l.002.002Z"/>
  <path fill="#596C00" d="m968.626 197.404 1.216 7.01 3.475-9.406c.144-.389.183-.788.146-1.175l-2.645.46a2.7 2.7 0 0 0-2.192 3.113v-.002Z"/>
  <path fill="#F9F8F4" d="m980.886 191.694-8.108 1.407a2.693 2.693 0 0 0-2.193 3.114l2.63 15.159a2.693 2.693 0 0 0 3.113 2.193l8.108-1.407a2.692 2.692 0 0 0 2.193-3.113l-2.63-15.16a2.693 2.693 0 0 0-3.113-2.193Z"/>
  <path fill="#DCB8FF" d="M975.894 203.13a1.595 1.595 0 0 1 1.773-2.645l.014.007.288.192.191-.284.009-.013c.236-.305.575-.515.953-.589a1.6 1.6 0 0 1 1.875 1.257 1.6 1.6 0 0 1-.183 1.105l-1.972 2.951-2.948-1.981Z"/>
  <path fill="#F9F8F4" d="m941.755 191.882-.67 15.371a2.693 2.693 0 0 0 2.572 2.808l8.222.358a2.693 2.693 0 0 0 2.807-2.573l.67-15.371a2.693 2.693 0 0 0-2.573-2.808l-8.221-.358a2.691 2.691 0 0 0-2.807 2.573Z"/>
  <path fill="#000" d="M948.407 201.024a1.382 1.382 0 0 0 2.011-1.883l-2.099-2.245-2.239 2.101a1.382 1.382 0 0 0 1.884 2.011l.01-.009.135-.126c-.206.703-.705 1.195-1.271 1.177l2.622.087c-.566-.018-1.03-.541-1.191-1.255l.126.135.009.009.003-.002Z"/>
  <path fill="#160C00" d="M922.972 271.681c-2.423 3.208-13.006 17.229-19.13 12.603-6.124-4.626 5.091-18.167 7.514-21.375a7.278 7.278 0 1 1 11.616 8.774v-.002Z"/>
  <path fill="#DCB8FF" d="M922.971 271.681a7.28 7.28 0 1 1-11.614-8.774 7.28 7.28 0 0 1 11.614 8.774Z"/>
  <path fill="#F9F8F4" d="M921.27 270.397a5.146 5.146 0 1 1-8.214-6.202 5.146 5.146 0 0 1 8.214 6.202Z"/>
  <path fill="#160C00" d="M1017.51 260.873c-2.42 3.207-13.01 17.228-19.13 12.602-6.124-4.625 5.09-18.167 7.51-21.376a7.285 7.285 0 0 1 10.2-1.422c3.21 2.423 3.84 6.986 1.42 10.196Z"/>
  <path fill="#DCB8FF" d="M1017.51 260.873c-2.42 3.207-6.99 3.844-10.2 1.421a7.288 7.288 0 0 1-1.42-10.195 7.285 7.285 0 0 1 10.2-1.422 7.289 7.289 0 0 1 1.42 10.196Z"/>
  <path fill="#F9F8F4" d="M1015.81 259.587a5.148 5.148 0 0 1-8.22-6.203 5.146 5.146 0 0 1 7.21-1.005 5.148 5.148 0 0 1 1.01 7.208Z"/>
  <path fill="#160C00" d="M892.13 258.914c-2.423 3.207-9.182 10.226-13.693 5.715-4.508-4.508-.348-11.28 2.075-14.489a7.28 7.28 0 0 1 11.616 8.774h.002Z"/>
  <path fill="#FF5B23" d="M892.13 258.914a7.28 7.28 0 1 1-11.616-8.775 7.28 7.28 0 0 1 11.616 8.775Z"/>
  <path fill="#F9F8F4" d="M890.428 257.628a5.145 5.145 0 1 1-8.213-6.202 5.144 5.144 0 0 1 7.208-1.004 5.14 5.14 0 0 1 1.005 7.206Z"/>
  <path fill="#160C00" d="M1013.67 135.306c-2.42 3.207-9.18 10.226-13.693 5.715-4.509-4.508-.348-11.28 2.073-14.489 2.42-3.21 6.99-3.845 10.2-1.422a7.287 7.287 0 0 1 1.42 10.194v.002Z"/>
  <path fill="#FF5B23" d="M1013.67 135.304c-2.42 3.208-6.99 3.845-10.19 1.422a7.28 7.28 0 0 1-1.43-10.194 7.286 7.286 0 0 1 10.2-1.422c3.2 2.423 3.84 6.987 1.42 10.194Z"/>
  <path fill="#F9F8F4" d="M1011.97 134.02a5.147 5.147 0 0 1-7.21 1.005 5.138 5.138 0 0 1-1-7.209 5.136 5.136 0 0 1 7.2-1.005 5.149 5.149 0 0 1 1.01 7.209Z"/>
  <path fill="#160C00" d="M1012.45 151.452c-2.43 3.207-13.009 17.228-19.133 12.603-6.124-4.626 5.091-18.168 7.513-21.375 2.42-3.208 6.99-3.845 10.19-1.422a7.28 7.28 0 0 1 1.43 10.194Z"/>
  <path fill="#DCB8FF" d="M1012.45 151.452a7.286 7.286 0 0 1-10.2 1.422 7.275 7.275 0 0 1-1.42-10.194 7.272 7.272 0 0 1 10.19-1.422 7.269 7.269 0 0 1 1.42 10.194h.01Z"/>
  <path fill="#F9F8F4" d="M1010.75 150.167a5.146 5.146 0 0 1-7.21 1.005 5.146 5.146 0 1 1 6.2-8.213 5.148 5.148 0 0 1 1.01 7.208Z"/>
  <path fill="#160C00" d="M952.649 259.083c-2.423 3.207-18.656 26.487-25.728 19.415-7.071-7.072 11.687-24.98 14.11-28.187a7.277 7.277 0 0 1 10.194-1.422 7.277 7.277 0 0 1 1.422 10.194h.002Z"/>
  <path fill="#FF5B23" d="M952.649 259.083a7.279 7.279 0 1 1-11.616-8.775 7.279 7.279 0 0 1 11.616 8.775Z"/>
  <path fill="#F9F8F4" d="M950.945 257.799a5.144 5.144 0 0 1-7.208 1.004 5.145 5.145 0 0 1-1.005-7.208 5.147 5.147 0 1 1 8.213 6.204Z"/>
  <path fill="#160C00" d="M886.035 184.941c-2.423 3.208-18.656 26.487-25.727 19.415-7.072-7.071 11.686-24.98 14.109-28.187a7.28 7.28 0 0 1 11.616 8.774l.002-.002Z"/>
  <path fill="#DCB8FF" d="M886.035 184.941a7.28 7.28 0 1 1-11.613-8.772 7.28 7.28 0 0 1 11.613 8.772Z"/>
  <path fill="#F9F8F4" d="M884.333 183.657a5.144 5.144 0 0 1-7.208 1.004 5.145 5.145 0 0 1-1.005-7.208 5.145 5.145 0 0 1 7.209-1.005 5.145 5.145 0 0 1 1.004 7.209Z"/>
  <path fill="#252525" d="m133.587 351.704-10.046 6.86c-7.498-6.27-16.229-11.541-25.255-15.246l1.281-12.151c12.166 4.994 23.914 12.086 34.02 20.537ZM157.156 379.374c5.533 10.033 7.652 19.373 6.796 27.384l-17.871-7.325c.637-5.946-.952-12.885-5.057-20.328l16.132.269ZM72.053 337.466c-8.459-.141-15.294 1.72-20.207 5.084l-14.844-12.424c6.62-4.532 15.811-7.056 27.212-6.865l7.839 14.205Z"/>
  <path fill="#97B700" d="m160.18 418.177-5.909 9.723c-1.971 3.246-4.658 6.059-8.011 8.353l5.909-9.723c3.35-2.296 6.04-5.107 8.011-8.353Z"/>
  <path fill="#D2FF00" d="m163.988 406.742-17.926-7.278c.68-5.966-.981-12.902-5.042-20.404l16.098.331c-5.525-10.066-13.755-19.466-23.516-27.658l-10.071 6.853c-7.46-6.274-16.225-11.566-25.252-15.245L99.59 331.2c-11.794-4.817-23.944-7.724-35.328-7.951l7.817 14.197c-8.53-.1-15.31 1.74-20.272 5.121l-14.79-12.473a27.257 27.257 0 0 0-8.237 8.913c.099-.17.152-.368.253-.536l-.743 1.232c-.784 1.297-1.332 2.651-1.793 4.143a28.078 28.078 0 0 0-1.264 6.057l17.887 7.343c-.64 5.901.915 12.863 5.019 20.301l-16.14-.267c5.562 10.004 13.757 19.468 23.58 27.701l10.07-6.853c7.498 6.211 16.197 11.463 25.249 15.242l-1.308 12.143c11.794 4.817 23.984 7.659 35.361 7.882l-7.814-14.194c8.425.125 15.31-1.741 20.168-5.096l14.83 12.408c3.415-2.28 6.05-5.028 8.048-8.338 2.038-3.376 3.301-7.22 3.805-11.433Zm-49.827 7.122c-22.288-.349-49.12-16.637-59.979-36.209-10.756-19.601-1.481-35.26 20.77-34.849 22.354.388 49.163 16.572 59.982 36.21 10.856 19.576 1.515 35.191-20.773 34.848Z"/>
  <path fill="#97B700" d="m23.08 348.208 5.91-9.723c-2.045 3.368-3.327 7.205-3.774 11.413l-5.909 9.723c.452-4.209 1.727-8.042 3.774-11.413Z"/>
  <path fill="#020202" d="m152.171 426.53-5.909 9.723c-6.619 4.532-15.801 7.058-27.202 6.867l5.909-9.723c11.401.191 20.583-2.335 27.202-6.867Z"/>
  <path fill="#252525" d="M152.168 426.53c-6.619 4.533-15.801 7.059-27.202 6.868l-7.836-14.208c8.458.141 15.291-1.717 20.2-5.08l14.838 12.42ZM114.164 413.86c-22.289-.348-49.12-16.636-59.98-36.209-10.755-19.601-1.48-35.26 20.77-34.849 22.355.388 49.164 16.573 59.983 36.211 10.856 19.576 1.515 35.191-20.773 34.847Z"/>
  <path fill="#020202" d="m32.014 377.281-5.91 9.726c-5.534-10.032-7.653-19.373-6.797-27.384l5.909-9.723c-.856 8.011 1.264 17.349 6.798 27.381Z"/>
  <path fill="#252525" d="M43.1 357.228c-.634 5.943.954 12.882 5.06 20.324l-16.144-.268c-5.534-10.032-7.653-19.373-6.796-27.384l17.883 7.33-.003-.002Z"/>
  <path fill="#97B700" d="m124.968 433.397-5.909 9.723c-11.401-.191-23.575-3.07-35.363-7.911l5.908-9.723c11.789 4.841 23.963 7.72 35.364 7.911ZM55.58 404.944l-5.911 9.726c-9.794-8.189-18.033-17.633-23.567-27.665l5.91-9.726c5.535 10.032 13.778 19.475 23.567 27.665Z"/>
  <path fill="#020202" d="m89.605 425.485-5.91 9.723c-12.153-4.995-23.913-12.087-34.02-20.538l5.911-9.726c10.107 8.451 21.863 15.548 34.019 20.541Z"/>
  <path fill="#252525" d="M90.888 413.331 89.6 425.486c-12.158-4.994-23.914-12.087-34.02-20.538l10.056-6.862c7.498 6.27 16.226 11.539 25.252 15.245ZM540.681 317.704l10.047 6.86c7.498-6.27 16.229-11.541 25.255-15.246l-1.282-12.151c-12.166 4.994-23.914 12.086-34.02 20.537ZM517.113 345.374c-5.534 10.033-7.653 19.373-6.796 27.384l17.87-7.325c-.636-5.946.952-12.885 5.058-20.328l-16.132.269ZM602.216 303.466c8.458-.141 15.293 1.72 20.207 5.084l14.843-12.424c-6.619-4.532-15.811-7.056-27.212-6.865l-7.838 14.205Z"/>
  <path fill="#97B700" d="m514.089 384.177 5.909 9.723c1.97 3.246 4.657 6.059 8.011 8.353l-5.909-9.723c-3.351-2.296-6.04-5.107-8.011-8.353Z"/>
  <path fill="#D2FF00" d="m510.28 372.742 17.927-7.278c-.68-5.966.98-12.902 5.042-20.404l-16.098.331c5.525-10.066 13.755-19.466 23.516-27.658l10.07 6.853c7.46-6.274 16.226-11.566 25.252-15.245l-1.31-12.141c11.794-4.817 23.944-7.724 35.327-7.951l-7.817 14.197c8.53-.1 15.31 1.74 20.273 5.121l14.79-12.473a27.263 27.263 0 0 1 8.237 8.913c-.099-.17-.152-.368-.254-.536l.744 1.232c.783 1.297 1.332 2.651 1.793 4.143a28.15 28.15 0 0 1 1.264 6.057l-17.887 7.343c.64 5.901-.915 12.863-5.019 20.301l16.14-.267c-5.563 10.004-13.758 19.468-23.58 27.701l-10.07-6.853c-7.498 6.211-16.198 11.463-25.249 15.242l1.308 12.143c-11.795 4.817-23.984 7.659-35.362 7.882l7.814-14.194c-8.425.125-15.31-1.741-20.167-5.096l-14.83 12.408c-3.415-2.28-6.05-5.028-8.049-8.338-2.038-3.376-3.3-7.22-3.805-11.433Zm49.827 7.122c22.289-.349 49.121-16.637 59.979-36.209 10.756-19.601 1.482-35.26-20.769-34.849-22.355.388-49.164 16.572-59.982 36.21-10.857 19.576-1.516 35.191 20.772 34.848Z"/>
  <path fill="#97B700" d="m651.188 314.208-5.909-9.723c2.045 3.368 3.326 7.205 3.774 11.413l5.908 9.723c-.452-4.209-1.727-8.042-3.773-11.413Z"/>
  <path fill="#020202" d="m522.098 392.53 5.909 9.723c6.619 4.532 15.8 7.058 27.201 6.867l-5.908-9.723c-11.401.191-20.583-2.335-27.202-6.867Z"/>
  <path fill="#252525" d="M522.101 392.53c6.619 4.533 15.8 7.059 27.201 6.868l7.837-14.208c-8.458.141-15.291-1.717-20.2-5.08l-14.838 12.42ZM560.104 379.86c22.289-.348 49.121-16.636 59.98-36.209 10.756-19.601 1.481-35.26-20.77-34.849-22.355.388-49.163 16.573-59.982 36.211-10.857 19.576-1.516 35.191 20.772 34.847Z"/>
  <path fill="#020202" d="m642.255 343.281 5.91 9.726c5.534-10.032 7.653-19.373 6.796-27.384l-5.908-9.723c.856 8.011-1.265 17.349-6.798 27.381Z"/>
  <path fill="#252525" d="M631.168 323.228c.635 5.943-.954 12.882-5.059 20.324l16.144-.268c5.533-10.032 7.652-19.373 6.796-27.384l-17.884 7.33.003-.002Z"/>
  <path fill="#97B700" d="m549.301 399.397 5.908 9.723c11.401-.191 23.576-3.07 35.364-7.911l-5.909-9.723c-11.788 4.841-23.962 7.72-35.363 7.911ZM618.689 370.944l5.911 9.726c9.794-8.189 18.033-17.633 23.566-27.665l-5.91-9.726c-5.534 10.032-13.777 19.475-23.567 27.665Z"/>
  <path fill="#020202" d="m584.664 391.485 5.909 9.723c12.154-4.995 23.913-12.087 34.02-20.538l-5.911-9.726c-10.106 8.451-21.862 15.548-34.018 20.541Z"/>
  <path fill="#252525" d="m583.381 379.331 1.288 12.155c12.158-4.994 23.913-12.087 34.02-20.538l-10.056-6.862c-7.498 6.27-16.226 11.539-25.252 15.245ZM1346.68 106.704l10.05 6.86c7.5-6.27 16.23-11.541 25.25-15.246l-1.28-12.151c-12.16 4.994-23.91 12.086-34.02 20.537ZM1323.11 134.374c-5.53 10.033-7.65 19.373-6.79 27.384l17.87-7.325c-.64-5.946.95-12.885 5.05-20.328l-16.13.269ZM1408.22 92.466c8.45-.141 15.29 1.72 20.2 5.084l14.85-12.424c-6.62-4.532-15.81-7.056-27.22-6.865l-7.83 14.205Z"/>
  <path fill="#97B700" d="m1320.09 173.177 5.91 9.723c1.97 3.246 4.66 6.059 8.01 8.353l-5.91-9.723c-3.35-2.296-6.04-5.107-8.01-8.353Z"/>
  <path fill="#D2FF00" d="m1316.28 161.742 17.93-7.278c-.68-5.966.98-12.902 5.04-20.404l-16.1.331c5.53-10.066 13.76-19.466 23.52-27.658l10.07 6.853c7.46-6.274 16.22-11.566 25.25-15.245l-1.31-12.14c11.79-4.818 23.94-7.725 35.33-7.952l-7.82 14.197c8.53-.1 15.31 1.74 20.27 5.12l14.79-12.472a27.25 27.25 0 0 1 8.24 8.913c-.1-.17-.15-.368-.25-.536l.74 1.232c.78 1.297 1.33 2.65 1.79 4.143a28.1 28.1 0 0 1 1.27 6.057l-17.89 7.343c.64 5.901-.92 12.863-5.02 20.301l16.14-.267c-5.56 10.004-13.76 19.468-23.58 27.701l-10.07-6.853c-7.5 6.211-16.2 11.463-25.25 15.242l1.31 12.143c-11.8 4.817-23.99 7.659-35.36 7.882l7.81-14.194c-8.42.125-15.31-1.741-20.17-5.096l-14.83 12.408c-3.41-2.28-6.05-5.028-8.04-8.338-2.04-3.376-3.31-7.22-3.81-11.433Zm49.83 7.122c22.29-.349 49.12-16.637 59.98-36.209 10.75-19.601 1.48-35.26-20.77-34.85-22.36.389-49.17 16.573-59.99 36.211-10.85 19.576-1.51 35.191 20.78 34.848Z"/>
  <path fill="#97B700" d="m1457.19 103.208-5.91-9.723c2.04 3.368 3.33 7.205 3.77 11.413l5.91 9.723c-.45-4.209-1.73-8.042-3.77-11.413Z"/>
  <path fill="#020202" d="m1328.1 181.53 5.91 9.723c6.62 4.532 15.8 7.058 27.2 6.867l-5.91-9.723c-11.4.191-20.58-2.335-27.2-6.867Z"/>
  <path fill="#252525" d="M1328.1 181.53c6.62 4.533 15.8 7.059 27.2 6.868l7.84-14.208c-8.46.141-15.29-1.717-20.2-5.08l-14.84 12.42ZM1366.1 168.86c22.29-.348 49.13-16.636 59.98-36.209 10.76-19.601 1.49-35.26-20.77-34.849-22.35.388-49.16 16.573-59.98 36.211-10.85 19.576-1.51 35.191 20.77 34.847Z"/>
  <path fill="#020202" d="m1448.25 132.281 5.91 9.726c5.54-10.032 7.66-19.373 6.8-27.384l-5.91-9.723c.86 8.011-1.26 17.349-6.8 27.381Z"/>
  <path fill="#252525" d="M1437.17 112.228c.63 5.943-.96 12.882-5.06 20.324l16.14-.268c5.54-10.032 7.66-19.373 6.8-27.384l-17.88 7.33v-.002Z"/>
  <path fill="#97B700" d="m1355.3 188.397 5.91 9.723c11.4-.191 23.57-3.07 35.36-7.911l-5.91-9.723c-11.78 4.841-23.96 7.72-35.36 7.911ZM1424.69 159.944l5.91 9.726c9.79-8.189 18.03-17.633 23.57-27.665l-5.91-9.726c-5.54 10.032-13.78 19.475-23.57 27.665Z"/>
  <path fill="#020202" d="m1390.66 180.485 5.91 9.723c12.16-4.995 23.92-12.087 34.02-20.538l-5.91-9.726c-10.1 8.451-21.86 15.548-34.02 20.541Z"/>
  <path fill="#252525" d="m1389.38 168.331 1.29 12.155c12.16-4.994 23.91-12.087 34.02-20.538l-10.06-6.862c-7.5 6.27-16.22 11.539-25.25 15.245ZM330.139 287.504l1.87 8.442a69.524 69.524 0 0 1 20.506 4.384l5.246-6.921c-8.735-3.329-18.273-5.369-27.622-5.905ZM304.464 290.379c-7.749 2.508-13.391 6.318-16.844 10.887l12.826 4.896c2.562-3.391 6.761-6.214 12.509-8.075l-8.491-7.708ZM368.957 310.058c4.453 4.041 7.09 8.331 8 12.465l13.737.781c-1.226-5.568-4.762-11.348-10.764-16.795l-10.973 3.549Z"/>
  <path fill="#97B700" d="m284.02 309.019-1.667 7.913c-.557 2.641-.534 5.406.089 8.227l1.667-7.914c-.62-2.82-.646-5.585-.089-8.226Z"/>
  <path fill="#D2FF00" d="m287.609 301.239 12.832 4.949c2.549-3.423 6.784-6.21 12.538-8.122l-8.504-7.66c7.76-2.529 16.599-3.397 25.642-2.895l1.886 8.451a68.414 68.414 0 0 1 20.503 4.383l5.227-6.93c8.456 3.241 16.167 7.644 22.177 13.064l-10.957 3.555c4.47 4.098 7.088 8.35 8.016 12.516l13.733.73a19.4 19.4 0 0 1-.067 8.627c.031-.136.1-.265.129-.401l-.214 1c-.225 1.053-.599 2.022-1.086 3.019a19.911 19.911 0 0 1-2.291 3.754l-12.843-4.895c-2.539 3.37-6.731 6.221-12.477 8.08l8.495 7.713c-7.749 2.479-16.6 3.397-25.696 2.886l-1.885-8.45c-6.908-.429-13.971-1.939-20.501-4.383l-5.229 6.93c-8.456-3.241-16.156-7.698-22.161-13.117l10.955-3.556c-4.428-4.033-7.088-8.349-7.974-12.451l-13.722-.784c-.661-2.843-.69-5.548-.115-8.236.586-2.741 1.801-5.348 3.589-7.777Zm22.36 27.93c11.721 10.662 33.551 15.273 48.7 10.411 15.109-4.927 17.92-17.554 6.188-28.165-11.775-10.673-33.542-15.327-48.702-10.411-15.15 4.864-17.905 17.501-6.186 28.165Z"/>
  <path fill="#97B700" d="m389.112 339.448 1.668-7.914c-.579 2.74-1.781 5.352-3.596 7.751l-1.668 7.913c1.814-2.401 3.017-5.008 3.596-7.75Z"/>
  <path fill="#020202" d="m284.108 317.244-1.667 7.913c1.225 5.569 4.755 11.345 10.757 16.792l1.667-7.914c-6.001-5.447-9.531-11.222-10.757-16.791Z"/>
  <path fill="#252525" d="M284.11 317.246c1.225 5.568 4.755 11.344 10.757 16.791l10.973-3.552c-4.453-4.041-7.09-8.328-7.998-12.459l-13.732-.78ZM309.969 329.166c11.721 10.662 33.551 15.273 48.7 10.411 15.109-4.926 17.92-17.554 6.188-28.165-11.775-10.673-33.542-15.326-48.702-10.411-15.15 4.864-17.905 17.501-6.186 28.165Z"/>
  <path fill="#020202" d="m370.34 350.17-1.668 7.916c7.748-2.508 13.39-6.318 16.843-10.886l1.668-7.914c-3.453 4.569-9.095 8.377-16.843 10.884Z"/>
  <path fill="#252525" d="M374.349 334.384c-2.562 3.389-6.761 6.213-12.509 8.073l8.497 7.714c7.748-2.508 13.39-6.318 16.844-10.886l-12.835-4.901h.003Z"/>
  <path fill="#97B700" d="m294.866 334.035-1.667 7.914c6.002 5.447 13.712 9.877 22.176 13.103l1.668-7.914c-8.464-3.226-16.175-7.656-22.177-13.103ZM344.67 353.043l-1.668 7.916c9.059.52 17.923-.366 25.672-2.874l1.668-7.916c-7.749 2.508-16.614 3.392-25.672 2.874Z"/>
  <path fill="#020202" d="m317.043 347.137-1.667 7.914c8.729 3.323 18.273 5.369 27.622 5.905l1.668-7.916c-9.349-.536-18.894-2.577-27.623-5.903Z"/>
  <path fill="#252525" d="m322.29 340.214-5.245 6.926c8.731 3.327 18.273 5.369 27.622 5.905l-1.874-8.448a69.478 69.478 0 0 1-20.503-4.383ZM1194.23 258.608l3.24 9.52c8.06-.418 16.45.436 24.25 2.47l5.19-8.664c-10.52-2.742-21.8-3.891-32.68-3.326ZM1164.92 265.184c-8.63 3.88-14.67 8.998-18.09 14.716l15.45 4.035c2.53-4.244 7.03-8.039 13.43-10.918l-10.79-7.833ZM1241.96 279.76c5.66 4.107 9.25 8.731 10.82 13.393l15.98-.836c-2.12-6.281-6.94-12.513-14.57-18.049l-12.23 5.492Z"/>
  <path fill="#97B700" d="m1143.66 289.317-.93 9.358c-.31 3.122.07 6.315 1.15 9.496l.92-9.358c-1.07-3.18-1.45-6.373-1.14-9.496Z"/>
  <path fill="#D2FF00" d="m1146.82 279.871 15.46 4.094c2.51-4.279 7.05-8.037 13.46-10.976l-10.8-7.776c8.65-3.906 18.75-6.029 29.27-6.594l3.25 9.529c8.05-.44 16.46.417 24.25 2.469l5.17-8.672c10.18 2.675 19.65 6.788 27.28 12.291l-12.21 5.497c5.69 4.17 9.25 8.753 10.85 13.45l15.97-.895a22.581 22.581 0 0 1 1.01 9.979c.02-.162.08-.318.1-.48l-.12 1.183c-.13 1.246-.44 2.413-.87 3.627a23.177 23.177 0 0 1-2.18 4.63l-15.46-4.032c-2.51 4.216-6.99 8.043-13.4 10.919l10.8 7.839c-8.64 3.846-18.76 6.029-29.34 6.59l-3.25-9.528c-8.03.38-16.39-.471-24.25-2.469l-5.16 8.672c-10.19-2.675-19.65-6.851-27.28-12.353l12.21-5.497c-5.62-4.101-9.25-8.753-10.79-13.382l-15.96.833c-1.12-3.203-1.5-6.326-1.17-9.506.33-3.242 1.4-6.409 3.16-9.442Zm29.38 29.449c14.9 10.838 40.71 13.403 57.61 5.864 16.84-7.608 18.49-22.558 3.58-33.337-14.96-10.845-40.71-13.466-57.61-5.865-16.89 7.542-18.47 22.496-3.58 33.338Z"/>
  <path fill="#97B700" d="m1268.98 311.176.92-9.358c-.32 3.241-1.38 6.412-3.17 9.414l-.93 9.358c1.79-3.005 2.85-6.17 3.18-9.414Z"/>
  <path fill="#020202" d="m1144.8 298.812-.93 9.358c2.13 6.281 6.94 12.509 14.56 18.045l.93-9.358c-7.63-5.535-12.44-11.764-14.56-18.045Z"/>
  <path fill="#252525" d="M1144.8 298.814c2.12 6.281 6.93 12.51 14.56 18.045l12.23-5.495c-5.65-4.106-9.24-8.728-10.82-13.387l-15.97.837ZM1176.2 309.317c14.9 10.838 40.71 13.403 57.61 5.864 16.84-7.607 18.48-22.558 3.58-33.336-14.96-10.845-40.71-13.467-57.61-5.865-16.89 7.541-18.48 22.496-3.58 33.337Z"/>
  <path fill="#020202" d="m1248.64 325.946-.93 9.36c8.64-3.879 14.68-8.998 18.09-14.716l.93-9.357c-3.42 5.717-9.46 10.833-18.09 14.713Z"/>
  <path fill="#252525" d="M1251.27 307.193c-2.53 4.241-7.03 8.036-13.43 10.914l10.79 7.84c8.64-3.88 14.68-8.998 18.09-14.716l-15.45-4.039v.001Z"/>
  <path fill="#97B700" d="m1159.36 316.857-.92 9.358c7.62 5.536 17.1 9.679 27.29 12.335l.92-9.357c-10.19-2.657-19.66-6.8-27.29-12.336ZM1219.33 332.519l-.92 9.36c10.53-.545 20.67-2.693 29.3-6.573l.93-9.361c-8.64 3.88-18.77 6.025-29.31 6.574Z"/>
  <path fill="#020202" d="m1186.65 329.192-.92 9.358c10.51 2.736 21.8 3.891 32.67 3.326l.93-9.36c-10.88.564-22.17-.585-32.68-3.324Z"/>
  <path fill="#252525" d="m1191.84 320.525-5.19 8.67c10.52 2.738 21.81 3.89 32.68 3.326l-3.24-9.527c-8.06.419-16.45-.435-24.25-2.469Z"/>
  <path fill="url(#c)" d="M80 181.586v-105h97.5v34.5c0 17.25-13.5 31.05-36 33l-42 3.75v33.75H80Zm19.5-51.75 41.25-3.75c8.25-.75 17.25-4.5 17.25-15.75v-15.75H99.5v35.25Zm146.25 54.75c-37.5 0-57.75-27-57.75-55.5s20.25-55.5 57.75-55.5 57.75 27 57.75 55.5-20.25 55.5-57.75 55.5Zm0-18c22.5 0 38.25-16.5 38.25-37.5s-15.75-37.5-38.25-37.5-38.25 16.5-38.25 37.5 15.75 37.5 38.25 37.5Zm71.262 15.15v-105h19.5v48.6l51.75-48.75h26.25l-45.75 43.5 44.25 61.5h-22.5l-35.25-48.75-18.75 18v30.9h-19.5Zm107.959-.15v-105h90v18h-70.5v17.25h53.25v18h-53.25v33.75h70.5v18h-90Zm105.029 0v-105h97.5v34.5c0 13.95-8.85 25.65-24.15 30.6l24.15 39.9H605l-22.35-36.75-33.15 3v33.75H530Zm19.5-51.75 41.25-3.75c8.25-.75 17.25-4.5 17.25-15.75v-15.75h-58.5v35.25Z"/>
  <path fill="#D2FF00" d="M70 181.586v-105h97.5v34.5c0 17.25-13.5 31.05-36 33l-42 3.75v33.75H70Zm19.5-51.75 41.25-3.75c8.25-.75 17.25-4.5 17.25-15.75v-15.75H89.5v35.25Zm146.25 54.75c-37.5 0-57.75-27-57.75-55.5s20.25-55.5 57.75-55.5 57.75 27 57.75 55.5-20.25 55.5-57.75 55.5Zm0-18c22.5 0 38.25-16.5 38.25-37.5s-15.75-37.5-38.25-37.5-38.25 16.5-38.25 37.5 15.75 37.5 38.25 37.5Zm71.262 15.15v-105h19.5v48.6l51.75-48.75h26.25l-45.75 43.5 44.25 61.5h-22.5l-35.25-48.75-18.75 18v30.9h-19.5Zm107.959-.15v-105h90v18h-70.5v17.25h53.25v18h-53.25v33.75h70.5v18h-90Zm105.029 0v-105h97.5v34.5c0 13.95-8.85 25.65-24.15 30.6l24.15 39.9H595l-22.35-36.75-33.15 3v33.75H520Zm19.5-51.75 41.25-3.75c8.25-.75 17.25-4.5 17.25-15.75v-15.75h-58.5v35.25ZM93.769 230.325h-.125c-.363 1.364-1.254 2.506-2.674 3.425-1.393.892-3.203 1.337-5.431 1.337-1.783 0-3.426-.32-4.93-.961a10.692 10.692 0 0 1-3.802-2.882c-1.058-1.281-1.894-2.855-2.507-4.721-.584-1.894-.877-4.067-.877-6.518 0-2.423.293-4.567.877-6.433.585-1.894 1.42-3.468 2.507-4.721a10.7 10.7 0 0 1 3.927-2.925c1.532-.668 3.231-1.002 5.097-1.002 2.618 0 4.805.585 6.56 1.754 1.754 1.17 3.105 2.716 4.052 4.638l-2.883 1.754c-.668-1.559-1.671-2.785-3.008-3.676-1.309-.891-2.883-1.337-4.72-1.337-1.282 0-2.452.237-3.51.71a7.948 7.948 0 0 0-2.758 1.922c-.752.836-1.336 1.838-1.754 3.008-.418 1.17-.627 2.479-.627 3.927v4.721c0 1.448.209 2.771.627 3.969.418 1.17 1.002 2.172 1.754 3.008a8.239 8.239 0 0 0 2.841 1.963c1.114.446 2.368.669 3.76.669 1.003 0 1.95-.125 2.841-.376.92-.279 1.713-.682 2.382-1.212a5.551 5.551 0 0 0 1.629-1.963c.39-.808.585-1.755.585-2.841v-2.883h-6.434v-3.091h9.86v14.998h-3.26v-4.261Zm25.497 4.261c-1.253 0-2.158-.334-2.715-1.003-.529-.668-.864-1.504-1.003-2.506h-.209c-.473 1.336-1.253 2.339-2.339 3.008-1.086.668-2.382 1.002-3.886 1.002-2.283 0-4.066-.585-5.347-1.754-1.253-1.17-1.88-2.758-1.88-4.763 0-2.033.738-3.593 2.214-4.679 1.504-1.086 3.83-1.63 6.977-1.63h4.261v-2.13c0-1.532-.417-2.702-1.253-3.51-.836-.807-2.117-1.211-3.844-1.211-1.309 0-2.409.292-3.3.877-.863.585-1.588 1.365-2.172 2.34l-2.006-1.88c.585-1.17 1.518-2.159 2.799-2.966 1.281-.836 2.897-1.254 4.847-1.254 2.618 0 4.651.641 6.099 1.922 1.448 1.281 2.173 3.064 2.173 5.348v11.864h2.464v2.925h-1.88Zm-9.608-2.34a8.5 8.5 0 0 0 2.297-.292c.697-.195 1.295-.474 1.797-.836a4.145 4.145 0 0 0 1.17-1.253c.278-.473.417-.989.417-1.546v-3.551h-4.428c-1.922 0-3.328.279-4.22.836-.863.557-1.295 1.364-1.295 2.423v.877c0 1.059.376 1.88 1.128 2.465.78.585 1.824.877 3.134.877Zm16.259 2.34v-21.557h3.342v3.509h.167c.251-.557.529-1.072.835-1.546a5.84 5.84 0 0 1 1.17-1.295 5.313 5.313 0 0 1 1.63-.836c.612-.222 1.336-.334 2.172-.334a7.67 7.67 0 0 1 3.927 1.045c1.198.668 2.089 1.782 2.674 3.342h.083c.39-1.17 1.115-2.186 2.173-3.05 1.086-.891 2.548-1.337 4.387-1.337 2.2 0 3.913.724 5.138 2.173 1.254 1.42 1.88 3.439 1.88 6.057v13.829h-3.342v-13.244c0-1.921-.376-3.37-1.128-4.345-.752-.974-1.95-1.462-3.593-1.462-.668 0-1.309.084-1.922.251a5.206 5.206 0 0 0-1.587.752c-.474.334-.85.766-1.128 1.295-.279.501-.418 1.1-.418 1.796v14.957h-3.342v-13.244c0-1.921-.376-3.37-1.128-4.345-.752-.974-1.922-1.462-3.51-1.462a7.27 7.27 0 0 0-1.921.251 5.155 5.155 0 0 0-1.63.752 4.031 4.031 0 0 0-1.169 1.295c-.279.501-.418 1.1-.418 1.796v14.957h-3.342Zm44.578.501c-1.476 0-2.813-.264-4.01-.794a8.967 8.967 0 0 1-3.05-2.256c-.836-1.002-1.49-2.186-1.964-3.551-.445-1.392-.668-2.952-.668-4.679 0-1.699.223-3.244.668-4.637.474-1.393 1.128-2.576 1.964-3.551a8.735 8.735 0 0 1 3.05-2.298c1.197-.529 2.534-.794 4.01-.794 1.449 0 2.744.265 3.886.794a8.483 8.483 0 0 1 2.924 2.214c.808.919 1.421 2.02 1.838 3.301.446 1.281.669 2.687.669 4.219v1.588h-15.5v1.002c0 .92.14 1.783.418 2.591.306.78.724 1.462 1.253 2.047a5.988 5.988 0 0 0 2.006 1.378c.807.335 1.713.502 2.715.502 1.365 0 2.549-.32 3.551-.961 1.031-.641 1.825-1.56 2.382-2.757l2.381 1.712c-.696 1.477-1.782 2.674-3.259 3.593-1.476.892-3.23 1.337-5.264 1.337Zm0-19.761c-.919 0-1.754.167-2.506.502a5.592 5.592 0 0 0-1.964 1.337 6.514 6.514 0 0 0-1.253 2.088c-.307.78-.46 1.644-.46 2.591v.292h11.907v-.459c0-1.922-.529-3.454-1.588-4.596-1.03-1.17-2.409-1.755-4.136-1.755Zm22.442-2.297h3.258l2.298 9.316 2.298 9.442h.083l2.632-9.442 2.716-9.316h2.966l2.799 9.316 2.674 9.442h.084l2.214-9.442 2.339-9.316h3.134l-5.724 21.557h-4.136l-3.008-10.361-1.88-6.559h-.083l-1.839 6.559-3.008 10.361h-4.052l-5.765-21.557Zm35.994-5.056c-.724 0-1.253-.167-1.587-.501-.306-.362-.46-.821-.46-1.379v-.543c0-.557.154-1.002.46-1.337.334-.362.863-.543 1.587-.543.725 0 1.24.181 1.546.543.334.335.502.78.502 1.337v.543c0 .558-.168 1.017-.502 1.379-.306.334-.821.501-1.546.501Zm-1.671 5.056h3.343v21.557h-3.343v-21.557Zm13.996 21.557c-1.17 0-2.061-.32-2.674-.961-.585-.668-.877-1.504-.877-2.507V203.67h3.342v27.991h3.175v2.925h-2.966Zm11.179 0c-1.17 0-2.061-.32-2.674-.961-.585-.668-.877-1.504-.877-2.507V203.67h3.342v27.991h3.175v2.925h-2.966Zm17.705-30.916h3.342v12.868h.167c.557-1.365 1.365-2.367 2.423-3.008 1.086-.669 2.381-1.003 3.885-1.003 1.337 0 2.549.265 3.635.794a7.703 7.703 0 0 1 2.757 2.256c.78.975 1.365 2.159 1.755 3.551.418 1.393.627 2.952.627 4.679 0 1.727-.209 3.287-.627 4.679-.39 1.393-.975 2.577-1.755 3.551a7.703 7.703 0 0 1-2.757 2.256c-1.086.53-2.298.794-3.635.794-2.924 0-5.027-1.337-6.308-4.01h-.167v3.509h-3.342V203.67Zm8.898 28.409c1.894 0 3.384-.585 4.471-1.754 1.086-1.198 1.629-2.758 1.629-4.68v-3.676c0-1.922-.543-3.468-1.629-4.637-1.087-1.198-2.577-1.797-4.471-1.797-.752 0-1.476.112-2.172.334a5.696 5.696 0 0 0-1.755.836 4.275 4.275 0 0 0-1.211 1.337 3.293 3.293 0 0 0-.418 1.629v8.022c0 .696.139 1.323.418 1.88.306.529.71.988 1.211 1.378a5.696 5.696 0 0 0 1.755.836c.696.195 1.42.292 2.172.292Zm23.441 3.008c-1.476 0-2.813-.264-4.011-.794a8.976 8.976 0 0 1-3.05-2.256c-.835-1.002-1.49-2.186-1.963-3.551-.446-1.392-.669-2.952-.669-4.679 0-1.699.223-3.244.669-4.637.473-1.393 1.128-2.576 1.963-3.551a8.744 8.744 0 0 1 3.05-2.298c1.198-.529 2.535-.794 4.011-.794 1.448 0 2.743.265 3.885.794a8.487 8.487 0 0 1 2.925 2.214c.807.919 1.42 2.02 1.838 3.301.446 1.281.668 2.687.668 4.219v1.588h-15.499v1.002c0 .92.139 1.783.418 2.591.306.78.724 1.462 1.253 2.047a5.983 5.983 0 0 0 2.005 1.378c.808.335 1.713.502 2.716.502 1.365 0 2.548-.32 3.551-.961 1.03-.641 1.824-1.56 2.381-2.757l2.382 1.712c-.697 1.477-1.783 2.674-3.259 3.593-1.476.892-3.231 1.337-5.264 1.337Zm0-19.761c-.919 0-1.755.167-2.507.502a5.588 5.588 0 0 0-1.963 1.337 6.534 6.534 0 0 0-1.254 2.088c-.306.78-.459 1.644-.459 2.591v.292h11.906v-.459c0-1.922-.529-3.454-1.587-4.596-1.031-1.17-2.409-1.755-4.136-1.755Zm40.364 19.26c-1.254 0-2.159-.334-2.716-1.003-.529-.668-.863-1.504-1.002-2.506h-.209c-.474 1.336-1.254 2.339-2.34 3.008-1.086.668-2.381 1.002-3.885 1.002-2.284 0-4.067-.585-5.348-1.754-1.253-1.17-1.88-2.758-1.88-4.763 0-2.033.738-3.593 2.214-4.679 1.504-1.086 3.83-1.63 6.977-1.63h4.262v-2.13c0-1.532-.418-2.702-1.254-3.51-.835-.807-2.116-1.211-3.843-1.211-1.309 0-2.409.292-3.301.877-.863.585-1.587 1.365-2.172 2.34l-2.005-1.88c.584-1.17 1.517-2.159 2.799-2.966 1.281-.836 2.896-1.254 4.846-1.254 2.618 0 4.651.641 6.099 1.922 1.449 1.281 2.173 3.064 2.173 5.348v11.864h2.465v2.925h-1.88Zm-9.609-2.34c.835 0 1.601-.097 2.298-.292.696-.195 1.295-.474 1.796-.836a4.145 4.145 0 0 0 1.17-1.253 3 3 0 0 0 .418-1.546v-3.551h-4.429c-1.922 0-3.328.279-4.219.836-.864.557-1.295 1.364-1.295 2.423v.877c0 1.059.376 1.88 1.128 2.465.779.585 1.824.877 3.133.877Zm20.695 2.34-7.562-21.557h3.343l3.76 10.695 2.339 7.353h.209l2.34-7.353 3.843-10.695h3.217l-7.603 21.557h-3.886Zm31.1 0c-1.254 0-2.159-.334-2.716-1.003-.529-.668-.863-1.504-1.003-2.506h-.209c-.473 1.336-1.253 2.339-2.339 3.008-1.086.668-2.381 1.002-3.885 1.002-2.284 0-4.067-.585-5.348-1.754-1.253-1.17-1.88-2.758-1.88-4.763 0-2.033.738-3.593 2.214-4.679 1.504-1.086 3.83-1.63 6.977-1.63h4.261v-2.13c0-1.532-.417-2.702-1.253-3.51-.835-.807-2.117-1.211-3.843-1.211-1.309 0-2.41.292-3.301.877-.863.585-1.587 1.365-2.172 2.34l-2.006-1.88c.585-1.17 1.518-2.159 2.799-2.966 1.282-.836 2.897-1.254 4.847-1.254 2.618 0 4.651.641 6.099 1.922 1.449 1.281 2.173 3.064 2.173 5.348v11.864h2.465v2.925h-1.88Zm-9.609-2.34a8.5 8.5 0 0 0 2.297-.292c.697-.195 1.296-.474 1.797-.836a4.145 4.145 0 0 0 1.17-1.253c.278-.473.417-.989.417-1.546v-3.551h-4.428c-1.922 0-3.328.279-4.22.836-.863.557-1.295 1.364-1.295 2.423v.877c0 1.059.376 1.88 1.128 2.465.78.585 1.825.877 3.134.877Zm17.93-24.273c-.724 0-1.253-.167-1.588-.501-.306-.362-.459-.821-.459-1.379v-.543c0-.557.153-1.002.459-1.337.335-.362.864-.543 1.588-.543.724 0 1.239.181 1.546.543.334.335.501.78.501 1.337v.543c0 .558-.167 1.017-.501 1.379-.307.334-.822.501-1.546.501Zm-1.671 5.056h3.342v21.557h-3.342v-21.557Zm13.995 21.557c-1.17 0-2.061-.32-2.674-.961-.584-.668-.877-1.504-.877-2.507V203.67h3.342v27.991h3.175v2.925h-2.966Zm23.499 0c-1.254 0-2.159-.334-2.716-1.003-.529-.668-.863-1.504-1.003-2.506h-.208c-.474 1.336-1.254 2.339-2.34 3.008-1.086.668-2.381 1.002-3.885 1.002-2.284 0-4.067-.585-5.348-1.754-1.253-1.17-1.88-2.758-1.88-4.763 0-2.033.738-3.593 2.214-4.679 1.504-1.086 3.83-1.63 6.977-1.63h4.262v-2.13c0-1.532-.418-2.702-1.254-3.51-.835-.807-2.117-1.211-3.843-1.211-1.309 0-2.41.292-3.301.877-.863.585-1.587 1.365-2.172 2.34l-2.006-1.88c.585-1.17 1.518-2.159 2.8-2.966 1.281-.836 2.896-1.254 4.846-1.254 2.618 0 4.651.641 6.099 1.922 1.449 1.281 2.173 3.064 2.173 5.348v11.864h2.465v2.925h-1.88Zm-9.609-2.34c.835 0 1.601-.097 2.298-.292.696-.195 1.295-.474 1.796-.836a4.145 4.145 0 0 0 1.17-1.253 3 3 0 0 0 .418-1.546v-3.551h-4.429c-1.922 0-3.328.279-4.219.836-.864.557-1.296 1.364-1.296 2.423v.877c0 1.059.376 1.88 1.128 2.465.78.585 1.825.877 3.134.877Zm16.259-28.576h3.342v12.868h.167c.557-1.365 1.365-2.367 2.423-3.008 1.087-.669 2.382-1.003 3.886-1.003 1.337 0 2.548.265 3.634.794a7.698 7.698 0 0 1 2.758 2.256c.779.975 1.364 2.159 1.754 3.551.418 1.393.627 2.952.627 4.679 0 1.727-.209 3.287-.627 4.679-.39 1.393-.975 2.577-1.754 3.551a7.698 7.698 0 0 1-2.758 2.256c-1.086.53-2.297.794-3.634.794-2.925 0-5.028-1.337-6.309-4.01h-.167v3.509h-3.342V203.67Zm8.899 28.409c1.893 0 3.384-.585 4.47-1.754 1.086-1.198 1.629-2.758 1.629-4.68v-3.676c0-1.922-.543-3.468-1.629-4.637-1.086-1.198-2.577-1.797-4.47-1.797-.752 0-1.477.112-2.173.334a5.707 5.707 0 0 0-1.755.836 4.275 4.275 0 0 0-1.211 1.337 3.293 3.293 0 0 0-.418 1.629v8.022c0 .696.139 1.323.418 1.88.306.529.71.988 1.211 1.378a5.707 5.707 0 0 0 1.755.836 8.02 8.02 0 0 0 2.173.292Zm18.886 2.507c-1.169 0-2.061-.32-2.673-.961-.585-.668-.878-1.504-.878-2.507V203.67h3.342v27.991h3.176v2.925h-2.967Zm15.937.501c-1.476 0-2.813-.264-4.011-.794a8.976 8.976 0 0 1-3.05-2.256c-.835-1.002-1.49-2.186-1.963-3.551-.446-1.392-.669-2.952-.669-4.679 0-1.699.223-3.244.669-4.637.473-1.393 1.128-2.576 1.963-3.551a8.744 8.744 0 0 1 3.05-2.298c1.198-.529 2.535-.794 4.011-.794 1.448 0 2.743.265 3.885.794a8.487 8.487 0 0 1 2.925 2.214c.807.919 1.42 2.02 1.838 3.301.446 1.281.668 2.687.668 4.219v1.588h-15.499v1.002c0 .92.139 1.783.418 2.591.306.78.724 1.462 1.253 2.047a5.983 5.983 0 0 0 2.005 1.378c.808.335 1.713.502 2.716.502 1.365 0 2.548-.32 3.551-.961 1.03-.641 1.824-1.56 2.381-2.757l2.382 1.712c-.697 1.477-1.783 2.674-3.259 3.593-1.476.892-3.231 1.337-5.264 1.337Zm0-19.761c-.919 0-1.755.167-2.507.502a5.588 5.588 0 0 0-1.963 1.337 6.534 6.534 0 0 0-1.254 2.088c-.306.78-.459 1.644-.459 2.591v.292h11.906v-.459c0-1.922-.529-3.454-1.587-4.596-1.031-1.17-2.409-1.755-4.136-1.755Zm26.368-7.353c-.724 0-1.253-.167-1.587-.501-.307-.362-.46-.821-.46-1.379v-.543c0-.557.153-1.002.46-1.337.334-.362.863-.543 1.587-.543s1.24.181 1.546.543c.334.335.501.78.501 1.337v.543c0 .558-.167 1.017-.501 1.379-.306.334-.822.501-1.546.501Zm-1.671 5.056h3.342v21.557h-3.342v-21.557Zm10.445 21.557v-21.557h3.342v3.509h.167c.529-1.226 1.267-2.2 2.214-2.925.975-.724 2.27-1.086 3.885-1.086 2.229 0 3.983.724 5.264 2.173 1.309 1.42 1.964 3.439 1.964 6.057v13.829h-3.342v-13.244c0-3.871-1.63-5.807-4.888-5.807-.669 0-1.323.084-1.964.251a5.682 5.682 0 0 0-1.671.752 3.853 3.853 0 0 0-1.211 1.295c-.279.501-.418 1.1-.418 1.796v14.957h-3.342Zm52.334 0h-19.134v-3.593l9.525-8.773c1.365-1.254 2.507-2.577 3.426-3.969.919-1.421 1.379-2.841 1.379-4.262v-.501c0-1.615-.446-2.924-1.337-3.927-.892-1.003-2.242-1.504-4.053-1.504-.891 0-1.671.125-2.339.376a5.548 5.548 0 0 0-1.755 1.044 6.341 6.341 0 0 0-1.212 1.588 9.895 9.895 0 0 0-.752 1.922l-3.133-1.212c.279-.863.655-1.699 1.128-2.506a9.38 9.38 0 0 1 1.838-2.215c.752-.64 1.644-1.155 2.674-1.545 1.059-.39 2.298-.585 3.718-.585 1.421 0 2.688.209 3.802.626 1.114.418 2.047 1.003 2.799 1.755a7.468 7.468 0 0 1 1.713 2.674c.418 1.03.627 2.172.627 3.426 0 1.142-.167 2.2-.502 3.175a12.1 12.1 0 0 1-1.295 2.799 16.725 16.725 0 0 1-2.047 2.548 43.688 43.688 0 0 1-2.548 2.507l-7.854 7.06h15.332v3.092Zm15.316.501c-3.481 0-6.03-1.323-7.645-3.969-1.588-2.646-2.382-6.35-2.382-11.113 0-4.762.794-8.466 2.382-11.112 1.615-2.646 4.164-3.969 7.645-3.969 3.482 0 6.016 1.323 7.604 3.969 1.615 2.646 2.423 6.35 2.423 11.112 0 4.763-.808 8.467-2.423 11.113-1.588 2.646-4.122 3.969-7.604 3.969Zm0-3.05c1.142 0 2.117-.236 2.925-.71.807-.473 1.462-1.142 1.963-2.005.502-.863.864-1.88 1.086-3.05.251-1.17.376-2.465.376-3.885v-4.763c0-1.42-.125-2.715-.376-3.885-.222-1.17-.584-2.187-1.086-3.05-.501-.863-1.156-1.532-1.963-2.005-.808-.474-1.783-.711-2.925-.711s-2.117.237-2.924.711c-.808.473-1.462 1.142-1.964 2.005-.501.863-.877 1.88-1.128 3.05-.223 1.17-.334 2.465-.334 3.885v4.763c0 1.42.111 2.715.334 3.885.251 1.17.627 2.187 1.128 3.05.502.863 1.156 1.532 1.964 2.005.807.474 1.782.71 2.924.71Zm34.785 2.549h-19.134v-3.593l9.525-8.773c1.365-1.254 2.507-2.577 3.426-3.969.919-1.421 1.378-2.841 1.378-4.262v-.501c0-1.615-.445-2.924-1.337-3.927-.891-1.003-2.242-1.504-4.052-1.504-.891 0-1.671.125-2.34.376a5.554 5.554 0 0 0-1.754 1.044 6.295 6.295 0 0 0-1.212 1.588 9.895 9.895 0 0 0-.752 1.922l-3.133-1.212c.278-.863.654-1.699 1.128-2.506a9.38 9.38 0 0 1 1.838-2.215c.752-.64 1.643-1.155 2.674-1.545 1.058-.39 2.298-.585 3.718-.585 1.421 0 2.688.209 3.802.626 1.114.418 2.047 1.003 2.799 1.755a7.468 7.468 0 0 1 1.713 2.674c.418 1.03.627 2.172.627 3.426 0 1.142-.168 2.2-.502 3.175a12.1 12.1 0 0 1-1.295 2.799 16.725 16.725 0 0 1-2.047 2.548 43.688 43.688 0 0 1-2.548 2.507l-7.855 7.06h15.333v3.092Zm18.449 0v-5.724h-14.079v-3.091l12.199-20.346h5.222v20.513h4.22v2.924h-4.22v5.724h-3.342Zm-10.778-8.648h10.778v-17.797h-.209l-10.569 17.797Z"/>
  <defs>
    <linearGradient id="a" x1="883.723" x2="807.787" y1="21.422" y2="68.096" gradientUnits="userSpaceOnUse">
      <stop stop-color="#DCB8FF"/>
      <stop offset="1" stop-color="#160C00"/>
    </linearGradient>
    <linearGradient id="b" x1="1079.55" x2="1007.48" y1="335.763" y2="391.87" gradientUnits="userSpaceOnUse">
      <stop stop-color="#DCB8FF"/>
      <stop offset="1" stop-color="#160C00"/>
    </linearGradient>
    <linearGradient id="c" x1="336.5" x2="331.5" y1="80.086" y2="181.586" gradientUnits="userSpaceOnUse">
      <stop stop-color="#D2FF00"/>
      <stop offset="1" stop-color="#252525"/>
    </linearGradient>
  </defs>
</svg>
